<svg width="24" height="24" viewBox="0 0 24 24" fill="none" xmlns="http://www.w3.org/2000/svg">
<path d="M12.89 1.45015L20.89 5.45015C21.2232 5.61573 21.5036 5.87097 21.6997 6.18719C21.8958 6.50341 21.9998 6.86807 22 7.24015V16.7702C21.9998 17.1422 21.8958 17.5069 21.6997 17.8231C21.5036 18.1393 21.2232 18.3946 20.89 18.5602L12.89 22.5602C12.6121 22.6992 12.3057 22.7716 11.995 22.7716C11.6843 22.7716 11.3779 22.6992 11.1 22.5602L3.1 18.5602C2.76713 18.3924 2.48776 18.135 2.29339 17.817C2.09903 17.4989 1.99741 17.1329 2 16.7601V7.24015C2.0002 6.86807 2.10419 6.50341 2.30028 6.18719C2.49637 5.87097 2.77679 5.61573 3.11 5.45015L11.11 1.45015C11.3866 1.31273 11.6912 1.24121 12 1.24121C12.3088 1.24121 12.6134 1.31273 12.89 1.45015V1.45015Z" stroke="#C0B283" stroke-width="1.5" stroke-linecap="round" stroke-linejoin="round"/>
<path d="M2.32 6.16016L12 11.0002L21.68 6.16016" stroke="#C0B283" stroke-width="1.5" stroke-linecap="round" stroke-linejoin="round"/>
<path d="M12 22.76V11" stroke="#C0B283" stroke-width="1.5" stroke-linecap="round" stroke-linejoin="round"/>
<path d="M7 3.5L17 8.5" stroke="#C0B283" stroke-width="1.5" stroke-linecap="round" stroke-linejoin="round"/>
</svg>
